<?xml version="1.0" standalone="no"?><!DOCTYPE svg PUBLIC "-//W3C//DTD SVG 1.1//EN" "http://www.w3.org/Graphics/SVG/1.1/DTD/svg11.dtd"><svg xmlns:xlink="http://www.w3.org/1999/xlink" version="1.1" class="highcharts-root" style="font-family:&quot;Lucida Grande&quot;, &quot;Lucida Sans Unicode&quot;, Arial, Helvetica, sans-serif;font-size:12px;" xmlns="http://www.w3.org/2000/svg" width="600" height="450" viewBox="0 0 600 450"><desc>Created with Highcharts 8.0.4</desc><defs><clipPath id="highcharts-fddr4bd-68-"><rect x="0" y="0" width="515" height="322" fill="none"></rect></clipPath></defs><rect fill="#ffffff" class="highcharts-background" x="0" y="0" width="600" height="450" rx="0" ry="0"></rect><rect fill="none" class="highcharts-plot-background" x="75" y="53" width="515" height="322"></rect><g class="highcharts-pane-group" data-z-index="0"></g><g class="highcharts-grid highcharts-xaxis-grid" data-z-index="1"><path fill="none" data-z-index="1" class="highcharts-grid-line" d="M 332.5 53 L 332.5 375" opacity="1"></path><path fill="none" data-z-index="1" class="highcharts-grid-line" d="M 589.5 53 L 589.5 375" opacity="1"></path><path fill="none" data-z-index="1" class="highcharts-grid-line" d="M 74.5 53 L 74.5 375" opacity="1"></path></g><g class="highcharts-grid highcharts-yaxis-grid" data-z-index="1"><path fill="none" data-z-index="1" class="highcharts-grid-line" d="M 75 375.5 L 590 375.5" opacity="1"></path><path fill="none" data-z-index="1" class="highcharts-grid-line" d="M 75 329.5 L 590 329.5" opacity="1"></path><path fill="none" data-z-index="1" class="highcharts-grid-line" d="M 75 283.5 L 590 283.5" opacity="1"></path><path fill="none" data-z-index="1" class="highcharts-grid-line" d="M 75 237.5 L 590 237.5" opacity="1"></path><path fill="none" data-z-index="1" class="highcharts-grid-line" d="M 75 191.5 L 590 191.5" opacity="1"></path><path fill="none" data-z-index="1" class="highcharts-grid-line" d="M 75 145.5 L 590 145.5" opacity="1"></path><path fill="none" data-z-index="1" class="highcharts-grid-line" d="M 75 99.5 L 590 99.5" opacity="1"></path><path fill="none" data-z-index="1" class="highcharts-grid-line" d="M 75 53.5 L 590 53.5" opacity="1"></path></g><rect fill="none" class="highcharts-plot-border" data-z-index="1" x="75" y="53" width="515" height="322"></rect><g class="highcharts-axis highcharts-xaxis" data-z-index="2"><text x="332.5" data-z-index="7" text-anchor="middle" transform="translate(0,0)" class="highcharts-axis-title" style="color:black;font-size:1.2em;font-weight:bold;font-family:arial;fill:black;" y="433"><tspan>TCGA samples</tspan></text><path fill="none" class="highcharts-axis-line" stroke="black" stroke-width="1" data-z-index="7" d="M 75 375.5 L 590 375.5"></path></g><g class="highcharts-axis highcharts-yaxis" data-z-index="2"><path fill="none" class="highcharts-tick" stroke="black" stroke-width="1" d="M 75 375.5 L 65 375.5" opacity="1"></path><path fill="none" class="highcharts-tick" stroke="black" stroke-width="1" d="M 75 329.5 L 65 329.5" opacity="1"></path><path fill="none" class="highcharts-tick" stroke="black" stroke-width="1" d="M 75 283.5 L 65 283.5" opacity="1"></path><path fill="none" class="highcharts-tick" stroke="black" stroke-width="1" d="M 75 237.5 L 65 237.5" opacity="1"></path><path fill="none" class="highcharts-tick" stroke="black" stroke-width="1" d="M 75 191.5 L 65 191.5" opacity="1"></path><path fill="none" class="highcharts-tick" stroke="black" stroke-width="1" d="M 75 145.5 L 65 145.5" opacity="1"></path><path fill="none" class="highcharts-tick" stroke="black" stroke-width="1" d="M 75 99.5 L 65 99.5" opacity="1"></path><path fill="none" class="highcharts-tick" stroke="black" stroke-width="1" d="M 75 52.5 L 65 52.5" opacity="1"></path><text x="26.421875" data-z-index="7" text-anchor="middle" transform="translate(0,0) rotate(270 26.421875 214)" class="highcharts-axis-title" style="color:black;font-size:1.2em;font-weight:bold;font-family:arial;fill:black;" y="214"><tspan>Transcript per million</tspan></text><path fill="none" class="highcharts-axis-line" stroke="black" stroke-width="1" data-z-index="7" d="M 74.5 53 L 74.5 375"></path></g><g class="highcharts-series-group" data-z-index="3"><g data-z-index="0.1" class="highcharts-series highcharts-series-0 highcharts-boxplot-series highcharts-color-0" transform="translate(75,53) scale(1 1)" clip-path="url(#highcharts-fddr4bd-68-)"><g class="highcharts-point"><path fill="none" class="highcharts-boxplot-stem" stroke="black" stroke-width="1.5" stroke-dasharray="4.5,1.5" d="M 128.75 211 L 128.75 189 M 128.75 241 L 128.75 282"></path><path fill="none" class="highcharts-boxplot-whisker" stroke="black" stroke-width="1.5" d="M 97.75 189.75 L 159.75 189.75 M 97.75 282.75 L 159.75 282.75"></path><path fill="#5669E3" class="highcharts-boxplot-box" stroke="#5669E3" stroke-width="1.5" d="M 66.75 211.75 L 66.75 241.75 L 190.75 241.75 L 190.75 211.75 L 66.75 211.75 z"></path><path fill="none" class="highcharts-boxplot-median" stroke="#000000" stroke-width="2.5" d="M 66.75 226.25 L 190.75 226.25"></path></g><g class="highcharts-point"><path fill="none" class="highcharts-boxplot-stem" stroke="black" stroke-width="1.5" stroke-dasharray="4.5,1.5" d="M 385.75 120 L 385.75 27 M 385.75 181 L 385.75 260"></path><path fill="none" class="highcharts-boxplot-whisker" stroke="black" stroke-width="1.5" d="M 354.75 27.75 L 416.75 27.75 M 354.75 260.75 L 416.75 260.75"></path><path fill="#F2370F" class="highcharts-boxplot-box" stroke="#F2370F" stroke-width="1.5" d="M 323.75 120.75 L 323.75 181.75 L 447.75 181.75 L 447.75 120.75 L 323.75 120.75 z"></path><path fill="none" class="highcharts-boxplot-median" stroke="#000000" stroke-width="2.5" d="M 323.75 150.25 L 447.75 150.25"></path></g></g><g data-z-index="0.1" class="highcharts-markers highcharts-series-0 highcharts-boxplot-series highcharts-color-0" transform="translate(75,53) scale(1 1)" clip-path="none"></g></g><text x="300" text-anchor="middle" class="highcharts-title" data-z-index="4" style="color:black;font-size:1.5em;fill:black;" y="24"><tspan>Expression  of DHX9 in COAD based on Sample types</tspan></text><text x="300" text-anchor="middle" class="highcharts-subtitle" data-z-index="4" style="color:#666666;fill:#666666;" y="52"></text><text x="10" text-anchor="start" class="highcharts-caption" data-z-index="4" style="color:#666666;fill:#666666;" y="447"></text><g class="highcharts-axis-labels highcharts-xaxis-labels" data-z-index="7"><text x="203.75" style="color:#666666;cursor:default;font-size:11px;fill:#666666;" text-anchor="middle" transform="translate(0,0)" y="394" opacity="1"><tspan>Normal</tspan><tspan x="203.75" dy="14">(n=41)</tspan></text><text x="461.25" style="color:#666666;cursor:default;font-size:11px;fill:#666666;" text-anchor="middle" transform="translate(0,0)" y="394" opacity="1"><tspan>Primary tumor</tspan><tspan x="461.25" dy="14">(n=286)</tspan></text></g><g class="highcharts-axis-labels highcharts-yaxis-labels" data-z-index="7"><text x="60" style="color:#666666;cursor:default;font-size:14px;font-family:arial;fill:#666666;" text-anchor="end" transform="translate(0,0)" y="381" opacity="1">25</text><text x="60" style="color:#666666;cursor:default;font-size:14px;font-family:arial;fill:#666666;" text-anchor="end" transform="translate(0,0)" y="335" opacity="1">50</text><text x="60" style="color:#666666;cursor:default;font-size:14px;font-family:arial;fill:#666666;" text-anchor="end" transform="translate(0,0)" y="289" opacity="1">75</text><text x="60" style="color:#666666;cursor:default;font-size:14px;font-family:arial;fill:#666666;" text-anchor="end" transform="translate(0,0)" y="243" opacity="1">100</text><text x="60" style="color:#666666;cursor:default;font-size:14px;font-family:arial;fill:#666666;" text-anchor="end" transform="translate(0,0)" y="197" opacity="1">125</text><text x="60" style="color:#666666;cursor:default;font-size:14px;font-family:arial;fill:#666666;" text-anchor="end" transform="translate(0,0)" y="151" opacity="1">150</text><text x="60" style="color:#666666;cursor:default;font-size:14px;font-family:arial;fill:#666666;" text-anchor="end" transform="translate(0,0)" y="105" opacity="1">175</text><text x="60" style="color:#666666;cursor:default;font-size:14px;font-family:arial;fill:#666666;" text-anchor="end" transform="translate(0,0)" y="59" opacity="1">200</text></g></svg>